<svg width="50" height="82" viewBox="0 0 50.453 82" xmlns="http://www.w3.org/2000/svg"><svg height="22" width="22" viewBox="0 0 26 26" fill="#FFF"><path d="M0 4v2h26V4H0zm0 8v2h26v-2H0zm0 8v2h26v-2H0z"/></svg><svg height="17" viewBox="0 0 14 14" width="25" y="22"><g fill="#e1e1fc"><path d="M7 9L5.268 7.484.316 11.729c.18.167.423.271.691.271h11.986c.267 0 .509-.104.688-.271L8.732 7.484 7 9z"/><path d="M13.684 2.271A1.007 1.007 0 0 0 12.993 2H1.007c-.267 0-.509.104-.689.273L7 8l6.684-5.729zM0 2.878v8.308l4.833-4.107zm9.167 4.201L14 11.186V2.875z"/></g></svg><svg height="25" viewBox="0 0 52.966 52.966" width="20" y="39"><path d="M51.704 51.273L36.845 35.82c3.79-3.801 6.138-9.041 6.138-14.82 0-11.58-9.42-21-21-21s-21 9.42-21 21 9.42 21 21 21c5.083 0 9.748-1.817 13.384-4.832l14.895 15.491a.998.998 0 0 0 1.414.028 1 1 0 0 0 .028-1.414zM21.983 40c-10.477 0-19-8.523-19-19s8.523-19 19-19 19 8.523 19 19-8.524 19-19 19z" fill="#fff"/></svg><svg height="18" viewBox="-6 -3 450 445" width="18" y="64"><g fill="#e1e1fc"><path d="M219.26 219.27c30.271 0 56.108-10.71 77.518-32.121 21.412-21.411 32.12-47.248 32.12-77.515 0-30.262-10.708-56.1-32.12-77.516-21.41-21.419-47.25-32.124-77.52-32.124s-56.1 10.705-77.51 32.115c-21.414 21.416-32.121 47.253-32.121 77.516 0 30.267 10.707 56.104 32.121 77.515 21.42 21.42 47.25 32.13 77.51 32.13z"/><path d="M419.26 335.04c-.668-9.609-2.002-19.985-3.997-31.121-1.999-11.136-4.524-21.457-7.57-30.978-3.046-9.514-7.139-18.794-12.278-27.836-5.137-9.041-11.037-16.748-17.703-23.127-6.666-6.377-14.801-11.465-24.406-15.271-9.617-3.805-20.229-5.711-31.84-5.711-1.711 0-5.709 2.046-11.991 6.139a2716.072 2716.072 0 0 1-21.266 13.708c-7.898 5.037-18.182 9.609-30.834 13.695-12.658 4.093-25.361 6.14-38.118 6.14-12.752 0-25.456-2.047-38.112-6.14-12.655-4.086-22.936-8.658-30.835-13.695a2784.143 2784.143 0 0 1-21.267-13.708c-6.283-4.093-10.278-6.139-11.991-6.139-11.61 0-22.222 1.906-31.833 5.711-9.613 3.806-17.749 8.898-24.412 15.271-6.661 6.379-12.562 14.086-17.699 23.127-5.137 9.042-9.229 18.326-12.275 27.836-3.045 9.521-5.568 19.842-7.566 30.978-2 11.136-3.332 21.505-3.999 31.121a427.742 427.742 0 0 0-.998 29.554c0 22.836 6.949 40.875 20.842 54.104 13.896 13.224 32.36 19.835 55.39 19.835h249.53c23.028 0 41.49-6.611 55.388-19.835 13.901-13.229 20.845-31.265 20.845-54.104 0-10.08-.33-19.93-1-29.54z"/><path d="M219.26 219.27c30.271 0 56.108-10.71 77.518-32.121 21.412-21.411 32.12-47.248 32.12-77.515 0-30.262-10.708-56.1-32.12-77.516-21.41-21.419-47.25-32.124-77.52-32.124s-56.1 10.705-77.51 32.115c-21.414 21.416-32.121 47.253-32.121 77.516 0 30.267 10.707 56.104 32.121 77.515 21.42 21.42 47.25 32.13 77.51 32.13z"/></g></svg><g fill="#d7d8f1"><path d="M48.045 8.304l-5.596-5.597a.91.91 0 0 0-.643-.266H31.493a3.185 3.185 0 0 0-3.182 3.182V19.26a3.186 3.186 0 0 0 3.182 3.182H45.13a3.186 3.186 0 0 0 3.182-3.182V8.946a.914.914 0 0 0-.266-.642zM41.72 4.55l4.482 4.482H41.72V4.55zm3.408 16.073H31.493a1.365 1.365 0 0 1-1.363-1.364V5.623c0-.752.612-1.364 1.363-1.364h9.318v5.227c0 .252.204.455.455.455h5.226v9.317a1.365 1.365 0 0 1-1.364 1.365z"/><path d="M36.864 6.688c-.5-.5-1.165-.775-1.875-.775s-1.376.275-1.875.775l-.389.39c-.5.5-.775 1.165-.775 1.874s.275 1.375.775 1.875l5.283 5.283c.293.293.684.454 1.1.454h.002a1.54 1.54 0 0 0 1.096-.453l.465-.466a1.54 1.54 0 0 0 .454-1.096 1.541 1.541 0 0 0-.454-1.102l-4.662-4.66a.454.454 0 1 0-.642.642l4.66 4.661a.64.64 0 0 1 .189.458.634.634 0 0 1-.187.453l-.467.468a.636.636 0 0 1-.454.186.643.643 0 0 1-.458-.187l-5.282-5.284a1.729 1.729 0 0 1-.51-1.232c0-.467.181-.904.51-1.232l.388-.39c.657-.657 1.81-.656 2.465 0l6.215 6.216c.328.328.51.765.51 1.232s-.182.904-.51 1.233l-1.864 1.865c-.658.657-1.81.657-2.465 0l-5.749-5.75a.454.454 0 1 0-.643.642l5.749 5.751c.5.5 1.165.775 1.875.775s1.375-.275 1.875-.775l1.864-1.865c.5-.5.776-1.166.776-1.875s-.275-1.376-.776-1.875l-6.214-6.216z"/></g><g fill="#dadae6" transform="translate(27.474 24.725) scale(.34375)"><path d="M32 0C14.355 0 0 14.355 0 32s14.355 32 32 32 32-14.355 32-32S49.645 0 32 0zm0 60C16.561 60 4 47.439 4 32S16.561 4 32 4s28 12.561 28 28-12.561 28-28 28z"/><circle cx="20.518" cy="21.361" r="4.338"/><circle cx="43.48" cy="21.361" r="4.338"/><path d="M52.541 36.568a2.003 2.003 0 0 0-2.488 1.344c-.035.119-3.739 11.947-18.053 11.947-14.219 0-17.904-11.467-18.055-11.955a2.004 2.004 0 0 0-2.486-1.336 2 2 0 0 0-1.344 2.489c.045.148 4.627 14.802 21.885 14.802s21.84-14.654 21.885-14.803a2 2 0 0 0-1.344-2.488z"/></g></svg>